<svg width="95" height="108" viewBox="0 0 95 108" fill="none" xmlns="http://www.w3.org/2000/svg">
<g opacity="1">
<path
    d="M91.6096 48.1658C91.2825 47.2308 90.9964 46.4204 90.792 45.7809C89.988 43.1358 89.3312 40.4121 88.6962 37.7805C88.3093 36.1707 87.9086 34.504 87.4753 32.8698C87.3282 32.3115 87.1728 31.5309 86.9902 30.6258C86.3907 27.6446 85.5676 23.5604 83.9924 22.0807C82.2728 20.4546 74.7265 19.0697 71.6305 19.0643C71.696 18.3949 71.7723 17.7472 71.8486 17.113C72.3228 13.1779 72.7316 9.77666 68.6736 7.89853C62.3864 4.97701 52.9951 2.7845 40.8022 1.38336L40.2026 1.3129C37.3465 0.97684 32.5719 0.413131 30.0864 1.32645C28.1078 2.05548 26.5272 4.16667 25.1346 6.02854C24.704 6.60309 24.2979 7.14512 23.8973 7.63023C19.6622 12.7416 10.5271 24.1621 9.25982 25.7421C6.92425 25.9128 4.5369 25.2976 2.22859 24.7041C-0.153303 24.0916 -2.40438 23.5144 -4.62821 23.7095C-8.24738 24.0239 -9.35384 27.4657 -10.4249 30.7965C-10.5611 31.222 -10.6974 31.6475 -10.8391 32.0676C-11.902 35.1978 -12.8395 38.3903 -13.747 41.4772C-14.9761 45.6643 -16.2488 49.9951 -17.8349 54.2148L-18.0393 54.7568C-19.3502 58.1635 -21.1379 62.8547 -19.421 66.1882C-18.7343 67.5216 -17.05 69.0664 -15.423 70.5597C-14.491 71.4161 -13.6026 72.2318 -12.9458 72.9608C-14.9434 75.6954 -17.7886 78.1751 -20.5411 80.5763C-21.6312 81.5222 -22.6559 82.4192 -23.637 83.3298C-24.4383 84.0751 -25.1959 84.6849 -25.8663 85.2269C-27.4224 86.4926 -28.5453 87.395 -28.6325 88.6878C-28.6951 89.6174 -28.1964 90.5849 -27.0137 91.8586C-25.2885 93.7015 -22.9666 95.1244 -20.7237 96.4984C-19.7808 97.0757 -18.8923 97.6204 -18.0638 98.1841C-15.0906 100.211 -10.0788 103.8 -8.9069 104.64C-9.01591 105.943 -9.41652 111.111 -9.34839 114.938C-9.28883 117.8 -7.58389 120.374 -4.96342 121.559C-3.03937 122.421 -1.5759 123.06 -0.616596 123.456C1.69989 124.418 3.9973 125.288 6.2184 126.128C10.1864 127.63 13.9364 129.05 17.7627 130.936L18.6675 131.386C21.4255 132.763 24.2461 134.169 26.9959 134.169C28.5534 134.18 30.0714 133.683 31.3182 132.755C34.4959 130.459 38.1505 125.424 39.7094 121.987C41.2083 121.957 44.7211 123.594 49.4713 126.524C51.7082 127.906 54.5879 127.687 56.587 125.982C58.7291 124.172 61.5743 121.765 62.9696 120.562C68.9652 115.431 73.6636 110.182 78.6372 104.626C79.5729 103.58 80.5268 102.517 81.4988 101.436C81.894 100.997 82.3654 100.545 82.8614 100.062C84.6438 98.3467 86.6632 96.4008 86.5842 93.9482C86.546 92.7584 85.3442 90.9453 84.284 89.3409C83.8153 88.6309 83.3711 87.9615 83.1449 87.5116C82.0166 85.2622 80.485 82.9043 79.0052 80.6441C76.6805 77.0775 74.2795 73.389 73.2003 69.8035C73.6418 69.0582 78.1494 67.7519 81.4552 66.7953C86.8022 65.2478 92.329 63.6461 93.4955 61.768C95.3623 58.7977 93.1003 52.399 91.6096 48.1658Z"
    fill="#4e73f3"
/>
</g>
</svg>
