<svg width="106" height="63" viewBox="0 0 106 63" fill="none" xmlns="http://www.w3.org/2000/svg">
<path d="M105.394 16.8545V16.65C105.421 16.3817 105.421 16.1114 105.394 15.843C104.921 12.755 101.144 11.0872 97.8626 10.2157L96.5714 -10.3569C97.233 -10.9408 97.8382 -11.5857 98.379 -12.2829C99.2056 -13.4179 99.6297 -14.7962 99.5841 -16.1995C99.4309 -17.5605 98.8112 -18.8266 97.8303 -19.7825C84.004 -34.5126 80.3027 -37.5683 72.9215 -43.6476C72.3469 -44.1238 71.7142 -44.5251 71.0385 -44.8419C67.1758 -46.8432 63.313 -45.7134 57.4275 -44.0027C54.0812 -43.0235 51.2514 -42.0874 49.1855 -41.3988C48.1095 -41.033 47.2057 -40.7424 46.4956 -40.5273C39.3618 -38.0418 32.9168 -33.8993 26.6761 -29.8859C22.9855 -27.508 19.1443 -25.0547 15.2923 -23.0104C14.9866 -22.8538 14.7398 -22.6027 14.5885 -22.2944C14.4373 -21.9861 14.3898 -21.6371 14.453 -21.2996C14.3624 -21.0579 14.308 -20.8041 14.2916 -20.5464C14.098 -18.0179 17.0569 -16.5438 20.1234 -15.1665L20.9089 12.4107C20.7637 12.4339 20.6224 12.4773 20.4893 12.5398C17.0569 14.186 14.8296 15.7677 13.7321 17.231C13.4275 17.2703 13.1422 17.4017 12.9144 17.6076C8.0583 21.7795 3.92788 26.728 0.691333 32.2517C0.577795 32.4425 0.504859 32.6547 0.477088 32.875C0.449317 33.0953 0.467308 33.319 0.529937 33.5321C0.5932 33.7435 0.69944 33.9396 0.842003 34.1081C0.984566 34.2766 1.16038 34.4138 1.35844 34.5112C14.0119 40.8272 26.9559 46.9925 39.8245 52.8028C46.9259 56.0307 54.2211 59.2586 61.4946 62.4005C61.6955 62.4854 61.9114 62.5293 62.1295 62.5296C62.4608 62.5328 62.7847 62.4311 63.0548 62.2391C70.8771 56.7623 78.7425 51.1458 86.4357 45.5722C92.6979 41.0208 98.9816 36.3942 105.104 31.8213C105.31 31.6666 105.477 31.4648 105.589 31.2327C105.701 31.0005 105.756 30.7448 105.749 30.4871L105.394 16.8545ZM94.7315 12.26C94.747 12.457 94.747 12.6549 94.7315 12.8518C94.5587 13.0262 94.3674 13.1813 94.1612 13.3145C86.2205 18.8665 78.2368 24.397 70.3822 29.7984C70.2531 22.8369 69.8872 15.8108 69.3062 8.91377C69.5429 8.97833 69.7796 9.02136 70.0056 9.0644C70.3075 9.31491 70.6893 9.44857 71.0816 9.441C71.4272 9.43945 71.7631 9.32622 72.0392 9.11821C76.1171 6.09472 87.0383 -2.08269 93.5587 -7.62396L94.7315 12.26ZM67.1758 33.7042C67.245 34.2849 67.1519 34.8733 66.9068 35.4043C66.6056 35.6677 66.2292 35.8296 65.8308 35.8669C64.4105 36.1682 62.6029 35.8669 61.9143 34.791C61.6001 34.0055 61.4606 33.161 61.5054 32.3162L60.763 5.26622L64.5612 7.07385L65.9169 7.70868C65.9006 7.83728 65.9006 7.96743 65.9169 8.09603C66.7669 16.5639 67.1758 25.1933 67.1758 33.7042ZM58.1268 25.6021C56.0023 24.4876 53.8225 23.4821 51.5957 22.5894C51.5096 15.1759 51.1438 7.69792 50.5197 0.295215L57.5458 3.66302L58.1268 25.6021ZM48.3893 24.58C48.4585 25.1606 48.3653 25.7491 48.1203 26.28C47.8191 26.5434 47.4427 26.7053 47.0443 26.7427C45.624 27.0439 43.8164 26.7427 43.1278 25.6667C42.8122 24.8816 42.6727 24.0368 42.7189 23.192L41.9765 -3.99792L46.119 -1.84598L47.1196 -1.32951C47.1093 -1.24374 47.1093 -1.15704 47.1196 -1.07127C47.9804 7.43968 48.4 16.069 48.4323 24.6015L48.3893 24.58ZM39.3618 17.0481L33.6807 14.1538C33.454 14.0424 33.2104 13.9697 32.9598 13.9386C32.9598 6.19155 32.5294 -1.62002 31.8838 -9.34551C33.8529 -8.3341 36.1877 -7.19357 38.7485 -5.77328L39.3618 17.0481ZM29.7426 14.681C29.8167 15.2612 29.7388 15.8507 29.5167 16.3918C29.2122 16.6499 28.8375 16.811 28.4407 16.8545C27.0204 17.1665 25.2128 16.8545 24.5349 15.7247C24.2151 14.9447 24.0789 14.1017 24.1368 13.2607L23.3944 -13.6387C24.5887 -13.0576 26.2672 -12.2291 28.5268 -11.0778V-10.9918C29.323 -2.47004 29.7426 6.15928 29.7857 14.6918L29.7426 14.681ZM70.8664 -41.1513C78.14 -35.1581 81.7875 -32.1562 95.4631 -17.566C95.9235 -17.1415 96.2332 -16.5788 96.3454 -15.9628C96.3251 -15.2976 96.0996 -14.6549 95.6999 -14.1228C94.6239 -12.5627 87.1781 -6.27899 72.9215 4.39467C72.1115 2.72545 71.1801 1.11793 70.1347 -0.414928C66.3298 -6.44991 62.1051 -12.2098 57.492 -17.652C52.2843 -23.5161 49.5298 -26.6257 47.1949 -27.9491C54.0166 -33.0062 61.0535 -37.9342 68.1764 -42.507C68.6798 -42.3894 69.1674 -42.2124 69.629 -41.9798C70.0769 -41.7607 70.4932 -41.482 70.8664 -41.1513V-41.1513ZM47.4855 -37.45C48.1526 -37.6544 49.0671 -37.9557 50.1969 -38.3323C52.2413 -39.0101 55.0388 -39.9355 58.3313 -40.9038L60.9782 -41.614C54.9527 -37.5791 49.0026 -33.3505 43.2138 -28.9713C39.6201 -29.2403 34.9073 -28.1966 27.3647 -26.4535L28.4407 -27.1314C34.4984 -31.0802 40.7929 -35.1581 47.4855 -37.45ZM27.1711 -23.1395C36.8548 -25.3883 41.7935 -26.5181 45.0645 -25.3883C46.8614 -24.7642 49.9494 -21.2781 55.0818 -15.5001C59.5811 -10.1838 63.7048 -4.56079 67.4233 1.32815C68.3759 2.75783 69.2383 4.24557 70.0056 5.78268C68.6427 5.32083 67.3126 4.76723 66.0245 4.12568C55.1033 -1.06052 49.6266 -3.66437 47.7329 -4.68655C28.5591 -14.9083 22.5551 -17.5982 22.3077 -17.7274L21.9849 -17.8457C20.4604 -18.4547 19.0153 -19.2459 17.681 -20.2021C18.3696 -20.6432 20.5108 -21.5901 27.1711 -23.1395ZM21.1671 15.8C21.2839 16.3269 21.4759 16.8343 21.7374 17.3064C22.336 18.2423 23.1724 19.0024 24.1612 19.5091C25.1499 20.0157 26.2554 20.2507 27.3647 20.19C27.9577 20.1905 28.5491 20.1292 29.1293 20.0071C30.2109 19.8268 31.2022 19.2933 31.9484 18.4899C32.248 18.1326 32.4813 17.7244 32.637 17.2849H32.7446L38.9315 20.4482C39.1155 20.5407 39.3174 20.5921 39.5232 20.5988L39.5878 23.2673C39.52 24.6409 39.7974 26.0096 40.3948 27.2484C40.9936 28.1892 41.8331 28.9527 42.8264 29.4597C43.8196 29.9668 44.9305 30.1989 46.0436 30.132C46.6377 30.1213 47.229 30.0492 47.8082 29.9168C48.8925 29.7376 49.8852 29.1995 50.6273 28.3889C51.1627 27.7261 51.4952 26.9228 51.5849 26.0756C53.8752 27.0237 56.1097 28.1014 58.2775 29.3035L58.3528 32.3377C58.2944 33.706 58.5792 35.0672 59.1813 36.2973C59.7801 37.2381 60.6196 38.0016 61.6129 38.5087C62.6061 39.0157 63.717 39.2478 64.8302 39.1809C65.4201 39.2093 66.0114 39.1768 66.5948 39.0841C67.6752 38.9008 68.6656 38.3678 69.4138 37.567C70.2051 36.4438 70.5573 35.0695 70.4037 33.7042V33.7042C78.8393 27.9155 87.4364 21.9546 95.9796 15.9829C96.7066 15.5513 97.2904 14.9151 97.6581 14.1538C97.7301 13.9794 97.7876 13.7995 97.8303 13.6158C100.606 14.4873 101.973 15.5848 102.134 16.3595C102.107 16.924 101.882 17.461 101.499 17.8766C98.7664 21.3628 81.3464 33.489 66.896 43.0437C64.5289 41.6449 62.1187 40.343 59.73 39.1486C52.4887 35.5441 30.442 25.3977 17.5734 20.3083C17.0326 20.1493 16.5331 19.8739 16.11 19.5014C16.11 19.5014 16.4006 18.1887 21.1671 15.8ZM13.5169 21.3736C14.2802 22.2688 15.2736 22.9385 16.3898 23.3103C29.1724 28.3243 51.09 38.4493 58.2882 42.043C60.2788 43.0329 62.2801 44.1304 64.2599 45.2709C63.9586 45.9918 63.6681 46.7235 63.3776 47.4229L63.227 47.3476C54.5546 43.7323 45.8607 39.9126 37.4036 35.9853C28.7205 31.9611 20.0158 27.7218 11.4941 23.3641C12.1289 22.7078 12.8176 22.0299 13.5169 21.3736V21.3736ZM9.21305 25.8604C18.0038 30.3795 27.0312 34.7802 35.9725 38.9442C44.5803 42.893 53.285 46.7235 61.9896 50.3495C62.0786 50.393 62.1725 50.4255 62.2693 50.4464C61.9681 51.2964 61.6668 52.1464 61.387 53.0072C52.7792 49.1552 44.0101 45.1741 35.4453 41.1715C26.1596 36.8676 16.8202 32.3055 7.66365 27.7648C8.15859 27.1085 8.6643 26.4737 9.20229 25.8604H9.21305ZM4.37117 32.4131C4.80156 31.7244 5.25346 31.0466 5.71613 30.3795C15.0556 35.0169 24.5887 39.6221 34.0681 44.0658C42.7727 48.1545 51.6172 52.2002 60.4079 56.106C60.1927 56.8054 59.999 57.494 59.8054 58.1934C53.5324 55.4712 47.281 52.6952 41.1587 49.9084C28.8603 44.3133 16.4866 38.4277 4.37117 32.4131ZM84.542 43.0006C77.4944 48.1115 70.3069 53.2439 63.1409 58.2795C64.2814 54.2842 65.6502 50.3576 67.2403 46.5191C67.4498 46.4808 67.6504 46.4042 67.8321 46.2931C74.6 41.8278 95.3986 28.0016 102.263 21.6425L102.478 29.7769C96.6037 34.1776 90.5567 38.6214 84.542 43.0006Z" fill="#F9BD87"/>
</svg>
