<svg width="264" height="141" viewBox="0 0 264 141" fill="none" xmlns="http://www.w3.org/2000/svg">
<path opacity="0.1" d="M-270 8.20489V8.20489C-265.199 3.78801 -257.652 4.40331 -253.63 9.53949L-252.796 10.604C-248.633 15.9206 -240.601 15.9689 -236.374 10.7027V10.7027C-232.179 5.47686 -224.156 5.56298 -219.961 10.7888V10.7888C-215.785 15.9913 -207.798 16.077 -203.622 10.8746L-203.402 10.6008C-199.283 5.4686 -191.445 5.54962 -187.432 10.7659V10.7659C-183.42 15.9821 -175.582 16.0631 -171.462 10.931L-171.243 10.6571C-167.067 5.45468 -159.105 5.50875 -154.929 10.7112V10.7112C-150.708 15.9695 -142.661 16.0241 -138.44 10.7659V10.7659C-134.219 5.50759 -126.172 5.56224 -121.951 10.8205V10.8205C-117.775 16.023 -109.745 15.9921 -105.569 10.7896V10.7896C-101.407 5.60474 -93.4203 5.60127 -89.3666 10.8711V10.8711C-85.3643 16.074 -77.5733 16.2325 -73.3628 11.1967L-72.6423 10.335C-68.4317 5.29919 -60.6407 5.4577 -56.6385 10.6606V10.6606C-52.5848 15.9305 -44.6169 15.9508 -40.4551 10.7659V10.7659C-36.2933 5.58097 -28.3255 5.60127 -24.2718 10.8711V10.8711C-20.2695 16.074 -12.4785 16.2325 -8.26793 11.1967L-7.76843 10.5993C-3.41052 5.38721 4.62716 5.46763 8.87991 10.7659V10.7659C13.1327 16.0641 21.1703 16.1445 25.5282 10.9324L26.0277 10.335C30.2383 5.29919 38.0492 5.48357 42.0515 10.6865V10.6865C46.0848 15.9298 53.9835 16.0375 58.1243 10.8787L58.3942 10.5426C62.4551 5.48328 70.2078 5.64621 74.0526 10.8716V10.8716C77.8489 16.0313 85.4767 16.268 89.5857 11.3536L90.392 10.3893C94.6591 5.28584 102.529 5.36458 106.693 10.5524L106.914 10.8274C111.076 16.0123 118.994 15.9305 123.048 10.6606V10.6606C127.05 5.4577 134.841 5.29919 139.052 10.335L139.772 11.1967C143.983 16.2325 151.774 16.074 155.776 10.8711V10.8711C159.83 5.60127 167.817 5.60474 171.979 10.7896V10.7896C176.155 15.9921 184.185 16.023 188.361 10.8205V10.8205C192.581 5.56224 200.673 5.56224 204.893 10.8205V10.8205C209.069 16.023 217.031 16.077 221.207 10.8746L221.427 10.6008C225.547 5.4686 233.385 5.54962 237.397 10.7659V10.7659C241.409 15.9821 249.247 16.0631 253.367 10.931L253.587 10.6571C257.763 5.45468 265.681 5.45468 269.857 10.6571L270.028 10.8706C274.238 16.1147 282.193 16.1943 286.507 11.0355L287.181 10.2293C291.346 5.24772 299.093 5.45629 303.052 10.6032V10.6032C307.074 15.8318 314.999 15.8852 319.021 10.6566V10.6566C322.991 5.496 330.745 5.41583 334.82 10.4933L335.126 10.8746C339.302 16.077 347.221 16.077 351.397 10.8746L351.568 10.6611C355.778 5.41706 363.733 5.33746 368.046 10.4962L368.587 11.1424C372.854 16.2459 380.724 16.1671 384.888 10.9793L385.192 10.6008C389.311 5.4686 397.149 5.54962 401.162 10.7659V10.7659C405.174 15.9821 413.012 16.0631 417.132 10.931L417.352 10.6571C421.527 5.45468 429.446 5.45468 433.622 10.6571L433.797 10.8746C437.972 16.077 445.891 16.077 450.067 10.8746L450.287 10.6008C454.406 5.4686 462.244 5.54962 466.257 10.7659V10.7659C470.269 15.9821 478.107 16.0631 482.227 10.931L482.446 10.6571C486.622 5.45468 494.541 5.45468 498.717 10.6571L498.888 10.8706C503.097 16.1147 511.053 16.1943 515.366 11.0355L515.952 10.335C520.162 5.29919 527.953 5.4577 531.956 10.6606V10.6606C536.009 15.9305 543.996 15.927 548.158 10.7421V10.7421C552.334 5.53962 560.389 5.53962 564.565 10.7421V10.7421C568.727 15.927 576.714 15.9305 580.767 10.6606V10.6606C584.77 5.4577 592.561 5.29919 596.771 10.335L597.492 11.1967C601.702 16.2325 609.493 16.074 613.496 10.8711V10.8711C617.549 5.60127 625.468 5.51941 629.63 10.7043L629.85 10.9793C634.014 16.1671 641.885 16.2459 646.152 11.1424L646.827 10.335C651.037 5.29919 658.828 5.4577 662.831 10.6606V10.6606C666.884 15.9305 674.871 15.927 679.033 10.7421V10.7421C683.209 5.53962 691.196 5.45468 695.372 10.6571L695.591 10.931C699.711 16.0631 707.549 15.9821 711.561 10.7659V10.7659C715.574 5.54962 723.412 5.46859 727.531 10.6008L727.751 10.8746C731.927 16.077 739.914 15.9921 744.09 10.7896V10.7896C748.251 5.60474 756.238 5.60127 760.292 10.8711V10.8711C764.294 16.074 772.085 16.2325 776.296 11.1967L777.471 9.79123C781.48 4.99709 788.873 5.07106 792.784 9.94445V9.94445C797.094 15.3138 805.433 14.7522 808.984 8.85355L814 0.521961" stroke="black"/>
<path opacity="0.1" d="M-270 39.2049V39.2049C-265.199 34.788 -257.652 35.4033 -253.63 40.5395L-252.796 41.604C-248.633 46.9206 -240.601 46.9689 -236.374 41.7027V41.7027C-232.179 36.4769 -224.156 36.563 -219.961 41.7888V41.7888C-215.785 46.9913 -207.798 47.077 -203.622 41.8746L-203.402 41.6008C-199.283 36.4686 -191.445 36.5496 -187.432 41.7659V41.7659C-183.42 46.9821 -175.582 47.0631 -171.462 41.931L-171.243 41.6571C-167.067 36.4547 -159.105 36.5087 -154.929 41.7112V41.7112C-150.708 46.9695 -142.661 47.0241 -138.44 41.7659V41.7659C-134.219 36.5076 -126.172 36.5622 -121.951 41.8205V41.8205C-117.775 47.023 -109.745 46.9921 -105.569 41.7896V41.7896C-101.407 36.6047 -93.4203 36.6013 -89.3666 41.8711V41.8711C-85.3643 47.074 -77.5733 47.2325 -73.3628 42.1967L-72.6423 41.335C-68.4317 36.2992 -60.6407 36.4577 -56.6385 41.6606V41.6606C-52.5848 46.9305 -44.6169 46.9508 -40.4551 41.7659V41.7659C-36.2933 36.581 -28.3255 36.6013 -24.2718 41.8711V41.8711C-20.2695 47.074 -12.4785 47.2325 -8.26793 42.1967L-7.76843 41.5993C-3.41052 36.3872 4.62716 36.4676 8.87991 41.7659V41.7659C13.1327 47.0641 21.1703 47.1445 25.5282 41.9324L26.0277 41.335C30.2383 36.2992 38.0492 36.4836 42.0515 41.6865V41.6865C46.0848 46.9298 53.9835 47.0375 58.1243 41.8787L58.3942 41.5426C62.4551 36.4833 70.2078 36.6462 74.0526 41.8716V41.8716C77.8489 47.0313 85.4767 47.268 89.5857 42.3536L90.392 41.3893C94.6591 36.2858 102.529 36.3646 106.693 41.5524L106.914 41.8274C111.076 47.0123 118.994 46.9305 123.048 41.6606V41.6606C127.05 36.4577 134.841 36.2992 139.052 41.335L139.772 42.1967C143.983 47.2325 151.774 47.074 155.776 41.8711V41.8711C159.83 36.6013 167.817 36.6047 171.979 41.7896V41.7896C176.155 46.9921 184.185 47.023 188.361 41.8205V41.8205C192.581 36.5622 200.673 36.5622 204.893 41.8205V41.8205C209.069 47.023 217.031 47.077 221.207 41.8746L221.427 41.6008C225.547 36.4686 233.385 36.5496 237.397 41.7659V41.7659C241.409 46.9821 249.247 47.0631 253.367 41.931L253.587 41.6571C257.763 36.4547 265.681 36.4547 269.857 41.6571L270.028 41.8706C274.238 47.1147 282.193 47.1943 286.507 42.0355L287.181 41.2293C291.346 36.2477 299.093 36.4563 303.052 41.6032V41.6032C307.074 46.8318 314.999 46.8852 319.021 41.6566V41.6566C322.991 36.496 330.745 36.4158 334.82 41.4933L335.126 41.8746C339.302 47.077 347.221 47.077 351.397 41.8746L351.568 41.6611C355.778 36.4171 363.733 36.3375 368.046 41.4962L368.587 42.1424C372.854 47.2459 380.724 47.1671 384.888 41.9793L385.192 41.6008C389.311 36.4686 397.149 36.5496 401.162 41.7659V41.7659C405.174 46.9821 413.012 47.0631 417.132 41.931L417.352 41.6571C421.527 36.4547 429.446 36.4547 433.622 41.6571L433.797 41.8746C437.972 47.077 445.891 47.077 450.067 41.8746L450.287 41.6008C454.406 36.4686 462.244 36.5496 466.257 41.7659V41.7659C470.269 46.9821 478.107 47.0631 482.227 41.931L482.446 41.6571C486.622 36.4547 494.541 36.4547 498.717 41.6571L498.888 41.8706C503.097 47.1147 511.053 47.1943 515.366 42.0355L515.952 41.335C520.162 36.2992 527.953 36.4577 531.956 41.6606V41.6606C536.009 46.9305 543.996 46.927 548.158 41.7421V41.7421C552.334 36.5396 560.389 36.5396 564.565 41.7421V41.7421C568.727 46.927 576.714 46.9305 580.767 41.6606V41.6606C584.77 36.4577 592.561 36.2992 596.771 41.335L597.492 42.1967C601.702 47.2325 609.493 47.074 613.496 41.8711V41.8711C617.549 36.6013 625.468 36.5194 629.63 41.7043L629.85 41.9793C634.014 47.1671 641.885 47.2459 646.152 42.1424L646.827 41.335C651.037 36.2992 658.828 36.4577 662.831 41.6606V41.6606C666.884 46.9305 674.871 46.927 679.033 41.7421V41.7421C683.209 36.5396 691.196 36.4547 695.372 41.6571L695.591 41.931C699.711 47.0631 707.549 46.9821 711.561 41.7659V41.7659C715.574 36.5496 723.412 36.4686 727.531 41.6008L727.751 41.8746C731.927 47.077 739.914 46.9921 744.09 41.7896V41.7896C748.251 36.6047 756.238 36.6013 760.292 41.8711V41.8711C764.294 47.074 772.085 47.2325 776.296 42.1967L777.471 40.7912C781.48 35.9971 788.873 36.0711 792.784 40.9444V40.9444C797.094 46.3138 805.433 45.7522 808.984 39.8536L814 31.522" stroke="black"/>
<path opacity="0.1" d="M-270 70.2049V70.2049C-265.199 65.788 -257.652 66.4033 -253.63 71.5395L-252.796 72.604C-248.633 77.9206 -240.601 77.9689 -236.374 72.7027V72.7027C-232.179 67.4769 -224.156 67.563 -219.961 72.7888V72.7888C-215.785 77.9913 -207.798 78.077 -203.622 72.8746L-203.402 72.6008C-199.283 67.4686 -191.445 67.5496 -187.432 72.7659V72.7659C-183.42 77.9821 -175.582 78.0631 -171.462 72.931L-171.243 72.6571C-167.067 67.4547 -159.105 67.5087 -154.929 72.7112V72.7112C-150.708 77.9695 -142.661 78.0241 -138.44 72.7659V72.7659C-134.219 67.5076 -126.172 67.5622 -121.951 72.8205V72.8205C-117.775 78.023 -109.745 77.9921 -105.569 72.7896V72.7896C-101.407 67.6047 -93.4203 67.6013 -89.3666 72.8711V72.8711C-85.3643 78.074 -77.5733 78.2325 -73.3628 73.1967L-72.6423 72.335C-68.4317 67.2992 -60.6407 67.4577 -56.6385 72.6606V72.6606C-52.5848 77.9305 -44.6169 77.9508 -40.4551 72.7659V72.7659C-36.2933 67.581 -28.3255 67.6013 -24.2718 72.8711V72.8711C-20.2695 78.074 -12.4785 78.2325 -8.26793 73.1967L-7.76843 72.5993C-3.41052 67.3872 4.62716 67.4676 8.87991 72.7659V72.7659C13.1327 78.0641 21.1703 78.1445 25.5282 72.9324L26.0277 72.335C30.2383 67.2992 38.0492 67.4836 42.0515 72.6865V72.6865C46.0848 77.9298 53.9835 78.0375 58.1243 72.8787L58.3942 72.5426C62.4551 67.4833 70.2078 67.6462 74.0526 72.8716V72.8716C77.8489 78.0313 85.4767 78.268 89.5857 73.3536L90.392 72.3893C94.6591 67.2858 102.529 67.3646 106.693 72.5524L106.914 72.8274C111.076 78.0123 118.994 77.9305 123.048 72.6606V72.6606C127.05 67.4577 134.841 67.2992 139.052 72.335L139.772 73.1967C143.983 78.2325 151.774 78.074 155.776 72.8711V72.8711C159.83 67.6013 167.817 67.6047 171.979 72.7896V72.7896C176.155 77.9921 184.185 78.023 188.361 72.8205V72.8205C192.581 67.5622 200.673 67.5622 204.893 72.8205V72.8205C209.069 78.023 217.031 78.077 221.207 72.8746L221.427 72.6008C225.547 67.4686 233.385 67.5496 237.397 72.7659V72.7659C241.409 77.9821 249.247 78.0631 253.367 72.931L253.587 72.6571C257.763 67.4547 265.681 67.4547 269.857 72.6571L270.028 72.8706C274.238 78.1147 282.193 78.1943 286.507 73.0355L287.181 72.2293C291.346 67.2477 299.093 67.4563 303.052 72.6032V72.6032C307.074 77.8318 314.999 77.8852 319.021 72.6566V72.6566C322.991 67.496 330.745 67.4158 334.82 72.4933L335.126 72.8746C339.302 78.077 347.221 78.077 351.397 72.8746L351.568 72.6611C355.778 67.4171 363.733 67.3375 368.046 72.4962L368.587 73.1424C372.854 78.2459 380.724 78.1671 384.888 72.9793L385.192 72.6008C389.311 67.4686 397.149 67.5496 401.162 72.7659V72.7659C405.174 77.9821 413.012 78.0631 417.132 72.931L417.352 72.6571C421.527 67.4547 429.446 67.4547 433.622 72.6571L433.797 72.8746C437.972 78.077 445.891 78.077 450.067 72.8746L450.287 72.6008C454.406 67.4686 462.244 67.5496 466.257 72.7659V72.7659C470.269 77.9821 478.107 78.0631 482.227 72.931L482.446 72.6571C486.622 67.4547 494.541 67.4547 498.717 72.6571L498.888 72.8706C503.097 78.1147 511.053 78.1943 515.366 73.0355L515.952 72.335C520.162 67.2992 527.953 67.4577 531.956 72.6606V72.6606C536.009 77.9305 543.996 77.927 548.158 72.7421V72.7421C552.334 67.5396 560.389 67.5396 564.565 72.7421V72.7421C568.727 77.927 576.714 77.9305 580.767 72.6606V72.6606C584.77 67.4577 592.561 67.2992 596.771 72.335L597.492 73.1967C601.702 78.2325 609.493 78.074 613.496 72.8711V72.8711C617.549 67.6013 625.468 67.5194 629.63 72.7043L629.85 72.9793C634.014 78.1671 641.885 78.2459 646.152 73.1424L646.827 72.335C651.037 67.2992 658.828 67.4577 662.831 72.6606V72.6606C666.884 77.9305 674.871 77.927 679.033 72.7421V72.7421C683.209 67.5396 691.196 67.4547 695.372 72.6571L695.591 72.931C699.711 78.0631 707.549 77.9821 711.561 72.7659V72.7659C715.574 67.5496 723.412 67.4686 727.531 72.6008L727.751 72.8746C731.927 78.077 739.914 77.9921 744.09 72.7896V72.7896C748.251 67.6047 756.238 67.6013 760.292 72.8711V72.8711C764.294 78.074 772.085 78.2325 776.296 73.1967L777.471 71.7912C781.48 66.9971 788.873 67.0711 792.784 71.9444V71.9444C797.094 77.3138 805.433 76.7522 808.984 70.8536L814 62.522" stroke="black"/>
<path opacity="0.1" d="M-270 101.205V101.205C-265.199 96.788 -257.652 97.4033 -253.63 102.539L-252.796 103.604C-248.633 108.921 -240.601 108.969 -236.374 103.703V103.703C-232.179 98.4769 -224.156 98.563 -219.961 103.789V103.789C-215.785 108.991 -207.798 109.077 -203.622 103.875L-203.402 103.601C-199.283 98.4686 -191.445 98.5496 -187.432 103.766V103.766C-183.42 108.982 -175.582 109.063 -171.462 103.931L-171.243 103.657C-167.067 98.4547 -159.105 98.5087 -154.929 103.711V103.711C-150.708 108.969 -142.661 109.024 -138.44 103.766V103.766C-134.219 98.5076 -126.172 98.5622 -121.951 103.821V103.821C-117.775 109.023 -109.745 108.992 -105.569 103.79V103.79C-101.407 98.6047 -93.4203 98.6013 -89.3666 103.871V103.871C-85.3643 109.074 -77.5733 109.233 -73.3628 104.197L-72.6423 103.335C-68.4317 98.2992 -60.6407 98.4577 -56.6385 103.661V103.661C-52.5848 108.93 -44.6169 108.951 -40.4551 103.766V103.766C-36.2933 98.581 -28.3255 98.6013 -24.2718 103.871V103.871C-20.2695 109.074 -12.4785 109.233 -8.26793 104.197L-7.76843 103.599C-3.41052 98.3872 4.62716 98.4676 8.87991 103.766V103.766C13.1327 109.064 21.1703 109.145 25.5282 103.932L26.0277 103.335C30.2383 98.2992 38.0492 98.4836 42.0515 103.687V103.687C46.0848 108.93 53.9835 109.037 58.1243 103.879L58.3942 103.543C62.4551 98.4833 70.2078 98.6462 74.0526 103.872V103.872C77.8489 109.031 85.4767 109.268 89.5857 104.354L90.392 103.389C94.6591 98.2858 102.529 98.3646 106.693 103.552L106.914 103.827C111.076 109.012 118.994 108.93 123.048 103.661V103.661C127.05 98.4577 134.841 98.2992 139.052 103.335L139.772 104.197C143.983 109.233 151.774 109.074 155.776 103.871V103.871C159.83 98.6013 167.817 98.6047 171.979 103.79V103.79C176.155 108.992 184.185 109.023 188.361 103.821V103.821C192.581 98.5622 200.673 98.5622 204.893 103.821V103.821C209.069 109.023 217.031 109.077 221.207 103.875L221.427 103.601C225.547 98.4686 233.385 98.5496 237.397 103.766V103.766C241.409 108.982 249.247 109.063 253.367 103.931L253.587 103.657C257.763 98.4547 265.681 98.4547 269.857 103.657L270.028 103.871C274.238 109.115 282.193 109.194 286.507 104.035L287.181 103.229C291.346 98.2477 299.093 98.4563 303.052 103.603V103.603C307.074 108.832 314.999 108.885 319.021 103.657V103.657C322.991 98.496 330.745 98.4158 334.82 103.493L335.126 103.875C339.302 109.077 347.221 109.077 351.397 103.875L351.568 103.661C355.778 98.4171 363.733 98.3375 368.046 103.496L368.587 104.142C372.854 109.246 380.724 109.167 384.888 103.979L385.192 103.601C389.311 98.4686 397.149 98.5496 401.162 103.766V103.766C405.174 108.982 413.012 109.063 417.132 103.931L417.352 103.657C421.527 98.4547 429.446 98.4547 433.622 103.657L433.797 103.875C437.972 109.077 445.891 109.077 450.067 103.875L450.287 103.601C454.406 98.4686 462.244 98.5496 466.257 103.766V103.766C470.269 108.982 478.107 109.063 482.227 103.931L482.446 103.657C486.622 98.4547 494.541 98.4547 498.717 103.657L498.888 103.871C503.097 109.115 511.053 109.194 515.366 104.035L515.952 103.335C520.162 98.2992 527.953 98.4577 531.956 103.661V103.661C536.009 108.93 543.996 108.927 548.158 103.742V103.742C552.334 98.5396 560.389 98.5396 564.565 103.742V103.742C568.727 108.927 576.714 108.93 580.767 103.661V103.661C584.77 98.4577 592.561 98.2992 596.771 103.335L597.492 104.197C601.702 109.233 609.493 109.074 613.496 103.871V103.871C617.549 98.6013 625.468 98.5194 629.63 103.704L629.85 103.979C634.014 109.167 641.885 109.246 646.152 104.142L646.827 103.335C651.037 98.2992 658.828 98.4577 662.831 103.661V103.661C666.884 108.93 674.871 108.927 679.033 103.742V103.742C683.209 98.5396 691.196 98.4547 695.372 103.657L695.591 103.931C699.711 109.063 707.549 108.982 711.561 103.766V103.766C715.574 98.5496 723.412 98.4686 727.531 103.601L727.751 103.875C731.927 109.077 739.914 108.992 744.09 103.79V103.79C748.251 98.6047 756.238 98.6013 760.292 103.871V103.871C764.294 109.074 772.085 109.233 776.296 104.197L777.471 102.791C781.48 97.9971 788.873 98.0711 792.784 102.944V102.944C797.094 108.314 805.433 107.752 808.984 101.854L814 93.522" stroke="black"/>
<path opacity="0.1" d="M-270 132.205V132.205C-265.199 127.788 -257.652 128.403 -253.63 133.539L-252.796 134.604C-248.633 139.921 -240.601 139.969 -236.374 134.703V134.703C-232.179 129.477 -224.156 129.563 -219.961 134.789V134.789C-215.785 139.991 -207.798 140.077 -203.622 134.875L-203.402 134.601C-199.283 129.469 -191.445 129.55 -187.432 134.766V134.766C-183.42 139.982 -175.582 140.063 -171.462 134.931L-171.243 134.657C-167.067 129.455 -159.105 129.509 -154.929 134.711V134.711C-150.708 139.969 -142.661 140.024 -138.44 134.766V134.766C-134.219 129.508 -126.172 129.562 -121.951 134.821V134.821C-117.775 140.023 -109.745 139.992 -105.569 134.79V134.79C-101.407 129.605 -93.4203 129.601 -89.3666 134.871V134.871C-85.3643 140.074 -77.5733 140.233 -73.3628 135.197L-72.6423 134.335C-68.4317 129.299 -60.6407 129.458 -56.6385 134.661V134.661C-52.5848 139.93 -44.6169 139.951 -40.4551 134.766V134.766C-36.2933 129.581 -28.3255 129.601 -24.2718 134.871V134.871C-20.2695 140.074 -12.4785 140.233 -8.26793 135.197L-7.76843 134.599C-3.41052 129.387 4.62716 129.468 8.87991 134.766V134.766C13.1327 140.064 21.1703 140.145 25.5282 134.932L26.0277 134.335C30.2383 129.299 38.0492 129.484 42.0515 134.687V134.687C46.0848 139.93 53.9835 140.037 58.1243 134.879L58.3942 134.543C62.4551 129.483 70.2078 129.646 74.0526 134.872V134.872C77.8489 140.031 85.4767 140.268 89.5857 135.354L90.392 134.389C94.6591 129.286 102.529 129.365 106.693 134.552L106.914 134.827C111.076 140.012 118.994 139.93 123.048 134.661V134.661C127.05 129.458 134.841 129.299 139.052 134.335L139.772 135.197C143.983 140.233 151.774 140.074 155.776 134.871V134.871C159.83 129.601 167.817 129.605 171.979 134.79V134.79C176.155 139.992 184.185 140.023 188.361 134.821V134.821C192.581 129.562 200.673 129.562 204.893 134.821V134.821C209.069 140.023 217.031 140.077 221.207 134.875L221.427 134.601C225.547 129.469 233.385 129.55 237.397 134.766V134.766C241.409 139.982 249.247 140.063 253.367 134.931L253.587 134.657C257.763 129.455 265.681 129.455 269.857 134.657L270.028 134.871C274.238 140.115 282.193 140.194 286.507 135.035L287.181 134.229C291.346 129.248 299.093 129.456 303.052 134.603V134.603C307.074 139.832 314.999 139.885 319.021 134.657V134.657C322.991 129.496 330.745 129.416 334.82 134.493L335.126 134.875C339.302 140.077 347.221 140.077 351.397 134.875L351.568 134.661C355.778 129.417 363.733 129.337 368.046 134.496L368.587 135.142C372.854 140.246 380.724 140.167 384.888 134.979L385.192 134.601C389.311 129.469 397.149 129.55 401.162 134.766V134.766C405.174 139.982 413.012 140.063 417.132 134.931L417.352 134.657C421.527 129.455 429.446 129.455 433.622 134.657L433.797 134.875C437.972 140.077 445.891 140.077 450.067 134.875L450.287 134.601C454.406 129.469 462.244 129.55 466.257 134.766V134.766C470.269 139.982 478.107 140.063 482.227 134.931L482.446 134.657C486.622 129.455 494.541 129.455 498.717 134.657L498.888 134.871C503.097 140.115 511.053 140.194 515.366 135.035L515.952 134.335C520.162 129.299 527.953 129.458 531.956 134.661V134.661C536.009 139.93 543.996 139.927 548.158 134.742V134.742C552.334 129.54 560.389 129.54 564.565 134.742V134.742C568.727 139.927 576.714 139.93 580.767 134.661V134.661C584.77 129.458 592.561 129.299 596.771 134.335L597.492 135.197C601.702 140.233 609.493 140.074 613.496 134.871V134.871C617.549 129.601 625.468 129.519 629.63 134.704L629.85 134.979C634.014 140.167 641.885 140.246 646.152 135.142L646.827 134.335C651.037 129.299 658.828 129.458 662.831 134.661V134.661C666.884 139.93 674.871 139.927 679.033 134.742V134.742C683.209 129.54 691.196 129.455 695.372 134.657L695.591 134.931C699.711 140.063 707.549 139.982 711.561 134.766V134.766C715.574 129.55 723.412 129.469 727.531 134.601L727.751 134.875C731.927 140.077 739.914 139.992 744.09 134.79V134.79C748.251 129.605 756.238 129.601 760.292 134.871V134.871C764.294 140.074 772.085 140.233 776.296 135.197L777.471 133.791C781.48 128.997 788.873 129.071 792.784 133.944V133.944C797.094 139.314 805.433 138.752 808.984 132.854L814 124.522" stroke="black"/>
</svg>
