<svg width="26" height="25" viewBox="0 0 26 25" fill="none" xmlns="http://www.w3.org/2000/svg">
<path d="M9.81907 20.8924L2.1905 15.7715C1.75682 15.4804 1.16992 15.5982 0.879626 16.0347C0.589332 16.4712 0.705573 17.061 1.13926 17.3521L8.76782 22.473C9.20151 22.7641 9.78841 22.6463 10.0787 22.2098C10.369 21.7733 10.2528 21.1835 9.81907 20.8924Z" fill="#3A4054"/>
<path d="M8.1995 5.03175L12.8293 14.1949C13.0655 14.6623 13.6342 14.8481 14.0996 14.6099C14.5649 14.3717 14.7507 13.7996 14.5145 13.3322L9.88474 4.16907C9.64855 3.70161 9.07983 3.51578 8.61446 3.75401C8.1491 3.99223 7.96331 4.5643 8.1995 5.03175Z" fill="#3A4054"/>
<path d="M24.6372 12.2885L25.6348 4.7329C25.7035 4.2127 25.3398 3.7357 24.8225 3.66751C24.3051 3.59931 23.8301 3.96574 23.7614 4.48594L22.7637 12.0415C22.695 12.5617 23.0587 13.0387 23.5761 13.1069C24.0934 13.1751 24.5685 12.8087 24.6372 12.2885Z" fill="#3A4054"/>
</svg>
