<svg width="14" height="14" viewBox="0 0 14 14" fill="none" xmlns="http://www.w3.org/2000/svg">
<rect width="14" height="14" rx="7" fill="#FFBAE3"/>
<path d="M9.4875 4.99375C8.8375 4.67187 7.97813 4.5 7 4.5C6.02187 4.5 5.1625 4.67187 4.5125 4.99375C3.8625 5.31562 3.5 5.775 3.5 6.25V7.75C3.5 8.225 3.86875 8.68437 4.5125 9.00625C5.15625 9.32812 6.02187 9.5 7 9.5C7.97813 9.5 8.8375 9.32812 9.4875 9.00625C10.1375 8.68437 10.5 8.225 10.5 7.75V6.25C10.5 5.775 10.1313 5.31562 9.4875 4.99375ZM7 5C8.95625 5 10 5.725 10 6.25C10 6.55938 9.63438 6.94375 8.925 7.20312H8.91563C8.43125 7.37812 7.79063 7.49687 7 7.49687C6.20937 7.49687 5.56875 7.37812 5.08437 7.20312H5.075C4.36563 6.94375 4 6.55938 4 6.25C4 5.725 5.04375 5 7 5ZM6.75 7.99687V8.99687C6.15625 8.975 5.65625 8.8875 5.25 8.7625V7.78125C5.69688 7.90625 6.20312 7.97812 6.75 7.99687ZM7.25 7.99687C7.79688 7.97812 8.30312 7.90625 8.75 7.78125V8.7625C8.34375 8.8875 7.84375 8.975 7.25 8.99687V7.99687ZM4 7.75V7.17188C4.1573 7.30282 4.32929 7.41503 4.5125 7.50625L4.75 7.6125V8.5625C4.25625 8.31875 4 8.00938 4 7.75ZM9.25 8.5625V7.6125L9.4875 7.50625C9.67071 7.41503 9.8427 7.30282 10 7.17188V7.75C10 8.00938 9.74375 8.31875 9.25 8.5625Z" fill="#3A4054"/>
</svg>
