<svg width="15" height="24" viewBox="0 0 15 24" fill="none" xmlns="http://www.w3.org/2000/svg">
<path d="M6.38857 23.5963V20.6249H9.75619V23.5963H6.38857ZM6.38857 3.81154V0.840115H9.75619V3.81154H6.38857ZM8.09714 21.4915C6.81778 21.4915 5.6746 21.2563 4.66762 20.7858C3.66064 20.3071 2.83937 19.6344 2.20381 18.7677C1.56825 17.8928 1.16381 16.8611 0.990476 15.6725L4.33333 15.1525C4.55619 16.1265 5.02254 16.9023 5.73238 17.4801C6.45048 18.0579 7.30476 18.3468 8.29524 18.3468C9.22794 18.3468 9.99968 18.1281 10.6105 17.6906C11.2295 17.2531 11.539 16.7125 11.539 16.0687C11.539 15.6312 11.4029 15.2722 11.1305 14.9915C10.8664 14.7027 10.4495 14.4674 9.88 14.2858L5.47238 12.9239C2.93016 12.1398 1.65905 10.5881 1.65905 8.26869C1.65905 7.17916 1.91492 6.23408 2.42667 5.43345C2.94667 4.63281 3.67714 4.01789 4.6181 3.58869C5.5673 3.15123 6.68572 2.93662 7.97333 2.94488C9.15365 2.96139 10.2019 3.17599 11.1181 3.58869C12.0343 3.99313 12.7978 4.58329 13.4086 5.35916C14.0276 6.12678 14.4775 7.06361 14.7581 8.16964L11.2914 8.78869C11.1759 8.26043 10.9613 7.79821 10.6476 7.40202C10.334 6.99758 9.94191 6.68393 9.47143 6.46107C9.00921 6.22996 8.49333 6.10615 7.92381 6.08964C7.37905 6.07313 6.88381 6.15154 6.4381 6.32488C6.00064 6.49821 5.64984 6.7417 5.38571 7.05535C5.12984 7.36075 5.00191 7.70742 5.00191 8.09535C5.00191 8.52456 5.18349 8.89599 5.54667 9.20964C5.90984 9.51504 6.48762 9.77916 7.28 10.002L10.4248 10.8934C12.0013 11.3474 13.1362 11.9623 13.8295 12.7382C14.5311 13.5141 14.8819 14.5417 14.8819 15.8211C14.8819 16.9436 14.5971 17.93 14.0276 18.7801C13.4581 19.6303 12.6616 20.2947 11.6381 20.7735C10.6229 21.2522 9.44254 21.4915 8.09714 21.4915Z" fill="black"/>
</svg>
