<svg width="14" height="14" viewBox="0 0 14 14" fill="none" xmlns="http://www.w3.org/2000/svg">
<rect width="14" height="14" rx="7" fill="#C4BAFF"/>
<path d="M7.51465 6.48531C7.24162 6.21239 6.87139 6.05908 6.48535 6.05908C6.09931 6.05908 5.72908 6.21239 5.45605 6.48531L4.42642 7.51461C4.15339 7.78764 4 8.15795 4 8.54407C4 8.9302 4.15339 9.30051 4.42642 9.57354C4.69945 9.84657 5.06976 9.99996 5.45588 9.99996C5.84201 9.99996 6.21232 9.84657 6.48535 9.57354L7 9.05889" stroke="#3A4054" stroke-width="0.5" stroke-linecap="round" stroke-linejoin="round"/>
<path d="M6.48535 7.51465C6.75838 7.78756 7.12861 7.94087 7.51465 7.94087C7.90069 7.94087 8.27092 7.78756 8.54395 7.51465L9.57358 6.48535C9.84661 6.21232 10 5.84201 10 5.45588C10 5.06976 9.84661 4.69945 9.57358 4.42642C9.30055 4.15339 8.93024 4 8.54412 4C8.15799 4 7.78768 4.15339 7.51465 4.42642L7 4.94107" stroke="#3A4054" stroke-width="0.5" stroke-linecap="round" stroke-linejoin="round"/>
</svg>
