<svg width="14" height="20" viewBox="0 0 14 20" fill="none" xmlns="http://www.w3.org/2000/svg">
<path d="M0.990476 19.1201V15.9754H1.01524C1.52698 15.9754 1.96444 15.7855 2.32762 15.4058C2.69079 15.0261 2.87238 14.5887 2.87238 14.0935V5.72393C2.87238 4.81599 3.10349 3.99885 3.56571 3.2725C4.02794 2.54615 4.65111 1.9725 5.43524 1.55154C6.21937 1.13059 7.09016 0.920116 8.04762 0.920116C8.93905 0.920116 9.70667 1.12234 10.3505 1.52678C11.0025 1.92297 11.5556 2.46774 12.0095 3.16107C12.4635 3.84615 12.8432 4.61789 13.1486 5.47631L10.1276 6.46678C9.92127 5.74869 9.65714 5.17504 9.33524 4.74583C9.02159 4.30837 8.59238 4.08964 8.04762 4.08964C7.52762 4.08964 7.10667 4.26297 6.78476 4.60964C6.47111 4.94805 6.31429 5.37726 6.31429 5.89726L6.28952 15.9754H11.8114V19.1201H0.990476ZM0.990476 11.7906V8.62107H9.80572V11.7906H0.990476Z" fill="black"/>
</svg>
