<svg width="14" height="14" viewBox="0 0 14 14" fill="none" xmlns="http://www.w3.org/2000/svg">
<rect width="14" height="14" rx="7" fill="#FFBEBA"/>
<g clip-path="url(#clip0_2072_2418)">
<path d="M4.01566 6.60947C3.77425 6.60947 3.67347 6.29932 3.86956 6.15635L6.85316 3.98604C6.89577 3.95482 6.94721 3.93799 7.00003 3.93799C7.05285 3.93799 7.1043 3.95482 7.14691 3.98604L10.1305 6.15635C10.3266 6.29854 10.2258 6.60947 9.98363 6.60947H9.50003V9.53135H10.0625C10.0969 9.53135 10.125 9.55947 10.125 9.59385V10.0001C10.125 10.0345 10.0969 10.0626 10.0625 10.0626H3.93753C3.90316 10.0626 3.87503 10.0345 3.87503 10.0001V9.59385C3.87503 9.55947 3.90316 9.53135 3.93753 9.53135H4.50003V6.60947H4.01566ZM8.02347 9.53135H8.93753V6.60947H8.02347V9.53135ZM6.54691 9.53135H7.46097V6.60947H6.54691V9.53135ZM5.06253 9.53135H5.98441V6.60947H5.06253V9.53135Z" fill="#3A4054"/>
</g>
<defs>
<clipPath id="clip0_2072_2418">
<rect width="8" height="8" fill="white" transform="matrix(-1 0 0 1 11 3)"/>
</clipPath>
</defs>
</svg>
