<svg width="14" height="14" viewBox="0 0 14 14" fill="none" xmlns="http://www.w3.org/2000/svg">
<rect width="14" height="14" rx="7" fill="#BAFFCD"/>
<g clip-path="url(#clip0_2072_2453)">
<path d="M8.35718 7.57146C8.30035 7.57146 8.24584 7.59404 8.20566 7.63423C8.16547 7.67441 8.14289 7.72892 8.14289 7.78575C8.14289 7.84258 8.16547 7.89709 8.20566 7.93727C8.24584 7.97746 8.30035 8.00003 8.35718 8.00003H9.07146C9.1283 8.00003 9.1828 7.97746 9.22299 7.93727C9.26317 7.89709 9.28575 7.84258 9.28575 7.78575C9.28575 7.72892 9.26317 7.67441 9.22299 7.63423C9.1828 7.59404 9.1283 7.57146 9.07146 7.57146H8.35718ZM3.85718 4.64289C3.85718 4.43451 3.93996 4.23466 4.08731 4.08731C4.23466 3.93996 4.43451 3.85718 4.64289 3.85718H8.50004C8.70842 3.85718 8.90827 3.93996 9.05562 4.08731C9.20297 4.23466 9.28575 4.43451 9.28575 4.64289V5.00232C9.55696 5.02044 9.81114 5.14096 9.99682 5.33948C10.1825 5.53799 10.2858 5.79965 10.2857 6.07146V9.07146C10.2857 9.35562 10.1729 9.62815 9.97194 9.82908C9.771 10.03 9.49848 10.1429 9.21432 10.1429H4.92975C4.64559 10.1429 4.37307 10.03 4.17214 9.82908C3.9712 9.62815 3.85832 9.35562 3.85832 9.07146V6.07146H3.85718V4.71432H3.86032C3.8582 4.69057 3.85715 4.66674 3.85718 4.64289ZM9.21432 5.42861H4.28689V9.07146C4.28689 9.24196 4.35462 9.40547 4.47518 9.52603C4.59574 9.64659 4.75925 9.71432 4.92975 9.71432H9.21432C9.38482 9.71432 9.54833 9.64659 9.66889 9.52603C9.78945 9.40547 9.85718 9.24196 9.85718 9.07146V6.07146C9.85718 5.90097 9.78945 5.73745 9.66889 5.61689C9.54833 5.49634 9.38482 5.42861 9.21432 5.42861ZM8.85718 4.64289C8.85718 4.44575 8.69718 4.28575 8.50004 4.28575H4.64289C4.54817 4.28575 4.45733 4.32338 4.39035 4.39035C4.32338 4.45733 4.28575 4.54817 4.28575 4.64289C4.28575 4.73761 4.32338 4.82845 4.39035 4.89543C4.45733 4.96241 4.54817 5.00003 4.64289 5.00003H8.85718V4.64289Z" fill="black"/>
</g>
<defs>
<clipPath id="clip0_2072_2453">
<rect width="8" height="8" fill="white" transform="translate(3 3)"/>
</clipPath>
</defs>
</svg>
